# xmcd
#
# Track frame offsets: 
#        150
#        27220
#        40868
#        68293
#        103418
#        130768
#        161642
#        173076
#        190717
#        205080
#        230441
#        247815
#        260736
#        275324
#        287348
#        309461
#        341427
#
# Disc length: 4725 seconds
#
# Revision: 2
# Processed by: cddbd v1.5.2PL0 Copyright (c) Steve Scherf et al.
# Submitted via: ExactAudioCopy v1.0b3
#
DISCID=e2127311
DTITLE=Musica Jazz (Magazine) - Touchstones 2019
DYEAR=2019
DGENRE=Jazz
TTITLE0=Dave Holland - Homecoming
TTITLE1=Paul Bley - Circles
TTITLE2=Mick Goodrick - Summer Band Camp
TTITLE3=Kenny Wheeler - W.W.
TTITLE4=Keith Jarret - Bop-Be
TTITLE5=Terje Rypdal - Kompet Gar
TTITLE6=Pat Metheny - Florida Greeting Song
TTITLE7=Bennie Maupin feat. Herbie Hancock - Past is Past
TTITLE8=Steve Kuhn - Life's backward Glance
TTITLE9=Bill Connors - Cafe Vue
TTITLE10=Ralph Towner - The Silence of a Candle
TTITLE11=John Surman and Jack Dejohnette - Merry Pranks
TTITLE12=Don Cherry and Ed Blackwell - Roland Alphonso
TTITLE13=Edward Vesala Sound and Fury - Calypso Bulbosa
TTITLE14=Gary Burton and Chick Corea - Falling Grace
TTITLE15=Gary Peacock - Requiem
TTITLE16=Dino Saluzzi - Remoteness... And the Years Went By
EXTD=YEAR: 2019
EXTT0=
EXTT1=
EXTT2=
EXTT3=
EXTT4=
EXTT5=
EXTT6=
EXTT7=
EXTT8=
EXTT9=
EXTT10=
EXTT11=
EXTT12=
EXTT13=
EXTT14=
EXTT15=
EXTT16=
PLAYORDER=
